<?xml version="1.0" encoding="UTF-8"?>
<svg version="1.1" xmlns="http://www.w3.org/2000/svg" width="1024" height="1024">
<path d="M0 0 C337.92 0 675.84 0 1024 0 C1024 337.92 1024 675.84 1024 1024 C686.08 1024 348.16 1024 0 1024 C0 686.08 0 348.16 0 0 Z " fill="#FDFDFD" transform="translate(0,0)"/>
<path d="M0 0 C1.11435425 0.00241699 1.11435425 0.00241699 2.2512207 0.00488281 C11.09151136 0.20033304 18.78076386 2.83128943 25.75 8.375 C26.31203125 8.82101563 26.8740625 9.26703125 27.453125 9.7265625 C34.14363021 15.63166058 38.45284055 23.64803384 39.26171875 32.57421875 C39.81571011 44.65611857 37.43882591 55.13835915 29.48046875 64.5390625 C26.0187556 68.21176042 22.21287879 71.02611643 17.75 73.375 C16.76 73.375 15.77 73.375 14.75 73.375 C14.88277344 74.36757813 15.01554687 75.36015625 15.15234375 76.3828125 C16.90182218 89.72217215 17.95138403 102.90464579 17.75 116.375 C18.80316406 116.48457031 19.85632813 116.59414063 20.94140625 116.70703125 C30.66713882 117.75760138 40.20837315 119.17357981 49.75 121.375 C50.57177734 121.5601416 51.39355469 121.7452832 52.24023438 121.93603516 C82.26337681 128.81861643 110.66878409 141.4642047 135.75 159.375 C136.70648437 160.03886719 137.66296875 160.70273437 138.6484375 161.38671875 C145.5075913 166.23136463 151.87901037 171.5892784 158.22631836 177.07470703 C159.77607902 178.39725554 161.35104916 179.6848004 162.9296875 180.97265625 C165.23595608 182.9371371 167.14261527 184.80327894 169.0625 187.125 C171.57761824 190.08590506 174.19641874 192.81136058 177 195.5 C192.29785533 210.66799238 204.37246642 230.08267831 213.75 249.375 C214.78060547 249.13910156 214.78060547 249.13910156 215.83203125 248.8984375 C224.52212133 247.33957261 232.80364615 247.32053198 240.5625 251.8125 C244.70027771 254.76805551 248.33187912 258.1405128 251.06640625 262.44921875 C253.33738539 265.04688167 255.48284959 265.57260059 258.75 266.625 C273.23846525 271.89499793 284.62934534 282.81102125 291.75 296.375 C301.46862183 318.71754594 302.19000737 345.69257248 293.58203125 368.46484375 C287.29857905 383.28891059 277.38256575 394.40522579 262.75 401.375 C260.04465675 402.3058708 257.57746132 402.88563169 254.75 403.375 C254.65203125 403.98085938 254.5540625 404.58671875 254.453125 405.2109375 C252.38006339 416.82723101 248.0756291 425.14136484 240.75 434.375 C240.21632813 435.07496094 239.68265625 435.77492188 239.1328125 436.49609375 C215.16890912 466.12310862 170.66305191 476.00073578 134.91357422 479.80444336 C130.55862208 480.21904664 126.22911508 480.43855145 121.85546875 480.5390625 C120.86039307 480.56589111 119.86531738 480.59271973 118.84008789 480.62036133 C116.90866898 480.66409457 114.97658854 480.68587258 113.04467773 480.68237305 C108.45756407 480.778718 106.42408342 480.83327887 102.74609375 483.7890625 C101.75802734 485.06910156 101.75802734 485.06910156 100.75 486.375 C93.12973878 493.99526122 80.62545671 495.58791873 70.3125 495.625 C55.81707564 495.60440991 43.80729345 492.93490829 32.8125 483.0625 C28.21540439 478.12929599 26.67782883 472.44550151 26.3125 465.8125 C26.62139502 458.41189021 30.412286 452.92824515 35.703125 447.9765625 C48.62015044 437.86972962 65.14459591 438.25837819 80.75 439.375 C89.68133908 440.65173842 98.08613365 444.43634367 104.25 451.0625 C105.75 453.375 105.75 453.375 105.75 455.375 C129.01748853 453.87760244 152.61138774 452.13419208 174.75 444.375 C175.88050781 443.98441406 177.01101563 443.59382813 178.17578125 443.19140625 C190.01769349 438.86591735 201.1595844 433.65089918 210.75 425.375 C211.45898438 424.80910156 212.16796875 424.24320313 212.8984375 423.66015625 C218.18498228 419.32676174 223.12148726 414.50522656 224.1875 407.5 C223.9106261 405.16896572 223.9106261 405.16896572 221.75 403.375 C218.3627524 402.9859438 218.3627524 402.9859438 214.75 404.375 C213.03010704 406.45931472 211.71481473 408.6614485 210.31640625 410.97265625 C203.00553134 422.18509533 188.3703421 427.86270175 176.5 432.9375 C175.66557373 433.29642334 174.83114746 433.65534668 173.97143555 434.02514648 C172.80221558 434.50963257 172.80221558 434.50963257 171.609375 435.00390625 C170.56475098 435.4381189 170.56475098 435.4381189 169.49902344 435.88110352 C167.75 436.375 167.75 436.375 165.75 435.375 C166.42482422 434.87806641 166.42482422 434.87806641 167.11328125 434.37109375 C187.9306312 417.72555742 198.12573255 388.46435022 203.875 363.375 C204.04596191 362.63918701 204.21692383 361.90337402 204.39306641 361.14526367 C213.67569716 319.29938634 203.17358114 273.26389775 180.75 237.375 C174.37516157 227.45257589 167.43240045 218.25570669 159.16845703 209.83300781 C157.70085098 208.32448056 156.27024523 206.78597736 154.83984375 205.2421875 C142.19739917 191.83482531 126.86665832 181.21232983 110.75 172.375 C109.8537793 171.87758301 109.8537793 171.87758301 108.93945312 171.37011719 C53.88925801 141.20120023 -13.5772956 137.11506503 -73.25097656 154.46923828 C-95.86561552 161.29928635 -117.17466645 171.40262192 -136.25 185.375 C-137.18247559 186.0551416 -137.18247559 186.0551416 -138.13378906 186.74902344 C-151.60517527 196.69097908 -164.1624787 207.97352766 -174.25 221.375 C-175.11664769 222.47959041 -175.98386548 223.58373369 -176.8515625 224.6875 C-189.2044728 240.66445715 -197.86871957 258.26488245 -204.25 277.375 C-204.50507324 278.13490234 -204.76014648 278.89480469 -205.02294922 279.67773438 C-210.89669454 297.6519503 -213.00628436 316.52461233 -212.25 335.375 C-212.2190625 336.58800781 -212.188125 337.80101562 -212.15625 339.05078125 C-210.68446048 373.30668238 -197.59692032 409.28388668 -175.25 435.375 C-174.33342394 436.48598079 -173.41814527 437.59803274 -172.50390625 438.7109375 C-154.71414851 460.16786927 -132.3990957 475.63437778 -107.25 487.375 C-106.16976562 487.88546875 -105.08953125 488.3959375 -103.9765625 488.921875 C-78.98372786 500.17772789 -52.53140287 506.44612859 -25.25 508.375 C-24.51201172 508.43139648 -23.77402344 508.48779297 -23.01367188 508.54589844 C-18.09502202 508.91732463 -13.17872107 509.18236965 -8.25 509.375 C-6.99058594 509.42914062 -5.73117187 509.48328125 -4.43359375 509.5390625 C10.50201604 509.86536182 26.0081469 508.58257774 40.68603516 505.82299805 C44.22087977 505.30615025 47.53466292 505.3490924 51.10546875 505.453125 C52.53812695 505.48486892 53.9708294 505.51466287 55.40356445 505.54272461 C56.51521469 505.56470413 56.51521469 505.56470413 57.64932251 505.58712769 C78.54182565 505.93292579 95.09970029 503.14186647 112.75 491.375 C115.60266649 491.14218941 118.39320621 491.00570916 121.25 490.9375 C129.13342539 490.65175821 136.75138316 489.75946289 144.51757812 488.39086914 C148.31635035 487.726084 151.87296626 487.19736698 155.75 487.375 C152.13339117 491.53604457 147.73340787 493.93889107 143 496.625 C142.15961182 497.10662598 141.31922363 497.58825195 140.45336914 498.08447266 C132.69590485 502.48785186 124.76898885 506.4757777 116.75 510.375 C114.02047645 511.76519212 111.2932647 513.15948734 108.5703125 514.5625 C106.75 515.375 106.75 515.375 104.75 515.375 C104.75 516.035 104.75 516.695 104.75 517.375 C106.02875 517.395625 107.3075 517.41625 108.625 517.4375 C126.4327123 519.27360593 145.71356294 530.53707409 158.75 542.375 C159.71421875 543.23480469 160.6784375 544.09460938 161.671875 544.98046875 C177.77129974 559.87147452 189.77408512 582.24125044 190.75 604.375 C190.84474609 605.73431641 190.84474609 605.73431641 190.94140625 607.12109375 C191.24699948 614.38632643 190.28663741 618.36952881 185.39453125 623.91015625 C182.53255682 626.66471072 180.85217109 627.3667604 176.875 627.6875 C175.84375 627.584375 174.8125 627.48125 173.75 627.375 C170.75231799 621.59375613 169.19399702 616.14602398 167.9375 609.8125 C163.33966086 587.39134113 150.70214841 567.63404397 131.921875 554.37890625 C123.62208788 548.97177893 115.12458701 545.44666274 105.75 542.375 C104.65429688 542.01019531 103.55859375 541.64539063 102.4296875 541.26953125 C97.5657949 539.54224641 97.5657949 539.54224641 92.63671875 540.08984375 C90.55196902 541.50989067 89.33848454 542.93388634 87.8125 544.9375 C79.19015153 555.03953115 66.63275147 560.95555388 54.75 566.375 C53.70457031 566.8596875 52.65914062 567.344375 51.58203125 567.84375 C19.04871168 581.6483151 -23.68073376 579.95154049 -56.14892578 567.23876953 C-70.40101151 561.37961553 -84.35577365 553.50997761 -94.25 541.375 C-94.25 540.715 -94.25 540.055 -94.25 539.375 C-111.60268327 539.81481455 -129.32163227 549.19759858 -142.25 560.375 C-143.05824219 561.01695312 -143.86648438 561.65890625 -144.69921875 562.3203125 C-158.6453255 573.89579467 -167.53652956 592.20659239 -171.17578125 609.75390625 C-171.34319824 610.55223877 -171.51061523 611.35057129 -171.68310547 612.1730957 C-172.01301091 613.77679386 -172.32903537 615.38342629 -172.62939453 616.99291992 C-173.59514366 621.75970607 -174.78604277 624.75917825 -178.25 628.375 C-183.70905517 627.98506749 -186.36850498 626.17023957 -190.25 622.375 C-195.44905689 615.4060514 -193.80403398 605.58245918 -192.81640625 597.33203125 C-189.3539582 573.59496132 -174.84520107 551.60008187 -155.87890625 537.234375 C-142.14105107 527.51785336 -126.79150801 519.9435051 -110.25 516.375 C-112.8722723 514.62681846 -115.36248049 513.29827634 -118.1953125 511.94140625 C-130.7882604 505.83314771 -142.80237287 499.44311677 -154.25 491.375 C-154.81638184 490.97684082 -155.38276367 490.57868164 -155.96630859 490.16845703 C-162.3214927 485.65337985 -168.23287226 480.76780798 -173.95703125 475.48046875 C-175.99089454 473.61291796 -178.07147023 471.8351578 -180.1875 470.0625 C-195.85518651 456.31394778 -208.9549863 437.9650274 -218.25 419.375 C-218.9925 419.54 -219.735 419.705 -220.5 419.875 C-230.93103668 421.26580489 -238.62530652 420.75884427 -247.375 414.5625 C-250.8916745 411.81894654 -253.62669825 408.98203991 -256.25 405.375 C-256.25 404.715 -256.25 404.055 -256.25 403.375 C-258.0753125 403.3440625 -258.0753125 403.3440625 -259.9375 403.3125 C-271.48291898 402.00341312 -281.90617711 393.78758747 -289.14453125 385.1015625 C-304.00203866 365.09733684 -306.18702436 342.28665431 -303.5 318.25 C-300.79576151 301.01047962 -291.86626177 284.63814911 -277.875 274 C-272.2705279 270.1612125 -265.8697039 266.23174509 -259.1015625 264.9765625 C-256.57016003 264.15412372 -255.97270716 262.91079958 -254.5625 260.6875 C-251.23159774 255.9666029 -247.22333366 253.2143214 -242.25 250.375 C-241.33734375 249.80458984 -241.33734375 249.80458984 -240.40625 249.22265625 C-237.34764543 248.02027003 -234.6491835 248.1487731 -231.375 248.1875 C-229.58449219 248.19716797 -229.58449219 248.19716797 -227.7578125 248.20703125 C-224.50689515 248.36269878 -221.44334892 248.76465044 -218.25 249.375 C-217.693125 248.28703125 -217.13625 247.1990625 -216.5625 246.078125 C-201.32026905 216.59701739 -179.48704667 189.81313218 -153.25 169.375 C-152.46753906 168.7253125 -151.68507813 168.075625 -150.87890625 167.40625 C-113.84179592 136.75484834 -66.71639353 120.39395932 -19.25 116.375 C-18.81886259 111.51897094 -18.39175268 106.66261009 -17.96826172 101.8059082 C-17.82384258 100.15607296 -17.67835124 98.50633119 -17.53173828 96.85668945 C-17.32037321 94.47631617 -17.1129524 92.09562591 -16.90625 89.71484375 C-16.84062866 88.98539047 -16.77500732 88.25593719 -16.70739746 87.50437927 C-16.33133913 83.12034244 -15.99989662 78.77591756 -16.25 74.375 C-18.39062495 72.33562439 -18.39062495 72.33562439 -21.3125 71 C-31.76533437 64.96745163 -35.56122786 56.44131642 -39.25 45.375 C-40.29661199 34.28091289 -38.74917257 24.77834994 -32.265625 15.55078125 C-23.67209794 5.35739543 -13.36374359 -0.0303825 0 0 Z " fill="#151412" transform="translate(505.25,191.625)"/>
<path d="M0 0 C2.87334204 0.01074969 5.74606103 0.00000878 8.61938477 -0.01269531 C20.63610071 -0.02270887 32.39812422 0.66814972 44.30883789 2.26074219 C44.97696503 2.34988892 45.64509216 2.43903564 46.33346558 2.53088379 C62.69770753 4.76784263 78.74343532 7.6615837 94.30883789 13.26074219 C95.14060547 13.55851562 95.97237305 13.85628906 96.8293457 14.16308594 C128.09180859 25.56566415 154.80992557 44.29648449 169.68383789 74.82324219 C179.57369537 97.60073264 181.35693473 125.91896966 172.30883789 149.26074219 C167.05480644 162.03746314 160.24238096 172.63001615 149.30883789 181.26074219 C148.50833008 181.89753906 147.70782227 182.53433594 146.88305664 183.19042969 C107.44114427 213.22471555 52.43161795 214.0384123 4.9510498 213.65197754 C1.56339934 213.63012809 -1.82409563 213.63113661 -5.21180439 213.63198853 C-23.12124128 213.63091177 -40.88345355 213.38688124 -58.69116211 211.26074219 C-59.95573242 211.11491699 -61.22030273 210.9690918 -62.52319336 210.81884766 C-65.61019844 210.4316133 -68.68030279 209.99361036 -71.75366211 209.51074219 C-73.36217041 209.25804565 -73.36217041 209.25804565 -75.00317383 209.00024414 C-91.7067038 206.23357565 -107.48869035 201.73343406 -122.69116211 194.26074219 C-123.65924805 193.80183594 -124.62733398 193.34292969 -125.62475586 192.87011719 C-145.27905093 182.94312926 -160.68059895 165.93479139 -168.06616211 145.13574219 C-168.64182975 143.18713269 -169.18521589 141.22860668 -169.69116211 139.26074219 C-170.02760742 137.97103516 -170.02760742 137.97103516 -170.37084961 136.65527344 C-175.74265987 111.15757131 -170.42429044 84.15877266 -156.78491211 62.19042969 C-154.86600302 59.43003178 -152.84312938 56.84310291 -150.69116211 54.26074219 C-149.90354492 53.29910156 -149.11592773 52.33746094 -148.30444336 51.34667969 C-124.47457042 23.77669216 -88.50917335 10.87572972 -53.62866211 4.51074219 C-51.99973022 4.2126062 -51.99973022 4.2126062 -50.33789062 3.90844727 C-33.59705407 1.02499421 -16.97080402 -0.07520084 0 0 Z " fill="#151412" transform="translate(499.691162109375,397.7392578125)"/>
<path d="M0 0 C1.06611511 -0.0065712 2.13223022 -0.0131424 3.23065186 -0.01991272 C6.74703047 -0.03956524 10.26336644 -0.05129323 13.77978516 -0.0612793 C14.98779408 -0.06535482 16.19580299 -0.06943035 17.44041824 -0.07362938 C23.84015988 -0.09446041 30.23988028 -0.10877242 36.63964844 -0.11816406 C43.21036608 -0.12919487 49.78074196 -0.16356533 56.35133934 -0.20333576 C61.4372719 -0.2296371 66.52312485 -0.23786808 71.60911942 -0.24144554 C74.02891969 -0.24628015 76.44871717 -0.25780337 78.86845016 -0.27648354 C95.66861274 -0.39807243 111.74342891 0.18598911 127.06884766 7.86450195 C128.11661377 8.37388306 128.11661377 8.37388306 129.18554688 8.89355469 C135.59264843 12.1384702 140.95096639 16.27526707 146.19384766 21.17700195 C146.82291016 21.71583008 147.45197266 22.2546582 148.10009766 22.80981445 C158.79528039 32.48409338 167.02868318 48.3333506 169.06884766 62.61450195 C169.14438822 64.13402943 169.17969567 65.65566377 169.19384766 67.17700195 C169.24283203 68.45188477 169.29181641 69.72676758 169.34228516 71.0402832 C169.94735759 91.99239935 163.17605212 110.07822708 149.38134766 125.92700195 C135.9747119 140.11989153 116.6998037 149.00733989 97.19384766 150.17700195 C95.68069349 150.08399162 94.16904868 149.96172724 92.66064453 149.81005859 C84.62096267 149.18358645 78.45515489 149.70786917 71.98681641 154.87963867 C66.54368938 159.79938314 61.61901628 165.18492585 56.69384766 170.61450195 C54.09720776 173.3783953 51.487042 176.12897337 48.87487793 178.87818909 C47.26422525 180.58377334 45.66542519 182.30064895 44.0802002 184.02989197 C43.36424683 184.80732254 42.64829346 185.58475311 41.91064453 186.38574219 C41.28702026 187.07111557 40.663396 187.75648895 40.02087402 188.46263123 C36.90173291 191.38944406 34.06392802 192.48789429 29.81884766 192.61450195 C29.08923828 192.65446289 28.35962891 192.69442383 27.60791016 192.7355957 C24.00731175 191.90244753 21.62931574 189.85536562 19.19384766 187.17700195 C17.67250084 184.45227978 16.66367303 181.60322671 15.62744141 178.6652832 C14.98753845 177.00093136 14.34141841 175.33895897 13.68969727 173.67919922 C13.35565887 172.82721954 13.02162048 171.97523987 12.67745972 171.09744263 C8.0978107 158.35415201 8.0978107 158.35415201 -0.38818359 148.34692383 C-5.71272215 146.64701559 -10.85303181 147.32125225 -16.31396484 148.03051758 C-20.37658501 148.26930795 -23.66193467 147.03670853 -27.36865234 145.48950195 C-28.01535889 145.22443848 -28.66206543 144.959375 -29.32836914 144.6862793 C-39.94630172 140.12733696 -48.62704722 134.31451841 -56.80615234 126.17700195 C-57.50482422 125.51313477 -58.20349609 124.84926758 -58.92333984 124.1652832 C-71.69893582 111.11627953 -78.10333869 91.10308238 -78.12084961 73.17773438 C-77.79714525 54.99857414 -71.02659732 38.65375436 -58.80615234 25.17700195 C-58.10619141 24.39583008 -57.40623047 23.6146582 -56.68505859 22.80981445 C-41.63787858 6.87750621 -21.4395215 0.05791475 0 0 Z " fill="#FCFCFC" transform="translate(709.80615234375,211.822998046875)"/>
<path d="M0 0 C1.06611511 -0.0065712 2.13223022 -0.0131424 3.23065186 -0.01991272 C6.74703047 -0.03956524 10.26336644 -0.05129323 13.77978516 -0.0612793 C14.98779408 -0.06535482 16.19580299 -0.06943035 17.44041824 -0.07362938 C23.84015988 -0.09446041 30.23988028 -0.10877242 36.63964844 -0.11816406 C43.21036608 -0.12919487 49.78074196 -0.16356533 56.35133934 -0.20333576 C61.4372719 -0.2296371 66.52312485 -0.23786808 71.60911942 -0.24144554 C74.02891969 -0.24628015 76.44871717 -0.25780337 78.86845016 -0.27648354 C95.66861274 -0.39807243 111.74342891 0.18598911 127.06884766 7.86450195 C128.11661377 8.37388306 128.11661377 8.37388306 129.18554688 8.89355469 C135.59264843 12.1384702 140.95096639 16.27526707 146.19384766 21.17700195 C146.82291016 21.71583008 147.45197266 22.2546582 148.10009766 22.80981445 C158.79528039 32.48409338 167.02868318 48.3333506 169.06884766 62.61450195 C169.14438822 64.13402943 169.17969567 65.65566377 169.19384766 67.17700195 C169.24283203 68.45188477 169.29181641 69.72676758 169.34228516 71.0402832 C169.94735759 91.99239935 163.17605212 110.07822708 149.38134766 125.92700195 C135.9747119 140.11989153 116.6998037 149.00733989 97.19384766 150.17700195 C95.68069349 150.08399162 94.16904868 149.96172724 92.66064453 149.81005859 C84.62096267 149.18358645 78.45515489 149.70786917 71.98681641 154.87963867 C66.54368938 159.79938314 61.61901628 165.18492585 56.69384766 170.61450195 C54.09720776 173.3783953 51.487042 176.12897337 48.87487793 178.87818909 C47.26422525 180.58377334 45.66542519 182.30064895 44.0802002 184.02989197 C43.36424683 184.80732254 42.64829346 185.58475311 41.91064453 186.38574219 C41.28702026 187.07111557 40.663396 187.75648895 40.02087402 188.46263123 C36.90173291 191.38944406 34.06392802 192.48789429 29.81884766 192.61450195 C29.08923828 192.65446289 28.35962891 192.69442383 27.60791016 192.7355957 C24.00731175 191.90244753 21.62931574 189.85536562 19.19384766 187.17700195 C17.67250084 184.45227978 16.66367303 181.60322671 15.62744141 178.6652832 C14.98753845 177.00093136 14.34141841 175.33895897 13.68969727 173.67919922 C13.35565887 172.82721954 13.02162048 171.97523987 12.67745972 171.09744263 C8.0978107 158.35415201 8.0978107 158.35415201 -0.38818359 148.34692383 C-5.71272215 146.64701559 -10.85303181 147.32125225 -16.31396484 148.03051758 C-20.37658501 148.26930795 -23.66193467 147.03670853 -27.36865234 145.48950195 C-28.01535889 145.22443848 -28.66206543 144.959375 -29.32836914 144.6862793 C-39.94630172 140.12733696 -48.62704722 134.31451841 -56.80615234 126.17700195 C-57.50482422 125.51313477 -58.20349609 124.84926758 -58.92333984 124.1652832 C-71.69893582 111.11627953 -78.10333869 91.10308238 -78.12084961 73.17773438 C-77.79714525 54.99857414 -71.02659732 38.65375436 -58.80615234 25.17700195 C-58.10619141 24.39583008 -57.40623047 23.6146582 -56.68505859 22.80981445 C-41.63787858 6.87750621 -21.4395215 0.05791475 0 0 Z M-45.54980469 40.5480957 C-51.76717868 48.60917601 -56.14896338 57.95406246 -56.80615234 68.17700195 C-56.87447266 69.2030957 -56.94279297 70.22918945 -57.01318359 71.28637695 C-57.52719646 87.20173837 -52.65546985 101.45889144 -41.80615234 113.17700195 C-27.96358296 126.27457194 -11.94852656 130.55483628 6.7097168 130.62353516 C7.47920654 130.63989014 8.24869629 130.65624512 9.04150391 130.6730957 C10.06256226 130.67587524 10.06256226 130.67587524 11.10424805 130.67871094 C14.27341618 131.4344385 15.88231003 132.90267966 18.19384766 135.17700195 C19.79956055 138.27734375 19.79956055 138.27734375 21.16650391 141.8762207 C21.41629501 142.51187454 21.66608612 143.14752838 21.92344666 143.80244446 C22.98460615 146.50358715 24.0110831 149.21752019 25.03979492 151.93115234 C25.79869274 153.9179511 26.57568662 155.89696663 27.35400391 157.8762207 C27.80396729 159.06046631 28.25393066 160.24471191 28.7175293 161.46484375 C29.88683485 164.27641763 29.88683485 164.27641763 32.09829712 165.00083923 C34.56901275 165.45381503 34.56901275 165.45381503 37.19897461 162.70776367 C38.37263118 161.5197274 39.53282599 160.31830108 40.68212891 159.10668945 C41.3035527 158.47344757 41.9249765 157.84020569 42.56523132 157.18777466 C44.55774487 155.15395764 46.53275593 153.10417209 48.50634766 151.05200195 C50.47159882 149.02379135 52.44043766 146.99932514 54.41532898 144.98049927 C55.64369627 143.7232312 56.86624613 142.46024319 58.0818634 141.19064331 C67.21782063 131.79229143 67.21782063 131.79229143 73.15307617 130.56518555 C74.11656982 130.56856934 75.08006348 130.57195312 76.07275391 130.57543945 C77.69225952 130.55549927 77.69225952 130.55549927 79.34448242 130.53515625 C80.47039795 130.54071533 81.59631348 130.54627441 82.75634766 130.55200195 C95.71804075 130.33325819 107.56140822 129.43736936 119.19384766 123.17700195 C120.02658203 122.73356445 120.85931641 122.29012695 121.71728516 121.83325195 C135.19506487 114.22417512 142.5985405 102.80292579 147.19384766 88.17700195 C147.52384766 87.18700195 147.85384766 86.19700195 148.19384766 85.17700195 C149.72835759 67.16291362 146.93380971 52.88368711 135.16259766 38.7355957 C127.48639074 30.51704808 118.01718131 25.08485121 107.19384766 22.17700195 C106.52822878 21.99772848 105.8626099 21.81845501 105.17682076 21.63374901 C99.26228096 20.18228657 93.66156224 19.88064678 87.58789062 19.88647461 C86.56703873 19.87975739 85.54618683 19.87304016 84.49440002 19.86611938 C81.14156128 19.84722545 77.78892373 19.84321918 74.43603516 19.84106445 C72.08586548 19.83462938 69.7356966 19.8279005 67.38552856 19.82089233 C62.46484523 19.80894018 57.54423198 19.80520927 52.62353516 19.80639648 C46.35307307 19.80659928 40.08306619 19.77932824 33.81271172 19.74485207 C28.9584654 19.72248745 24.10432686 19.71856191 19.25003433 19.71961594 C16.94023194 19.71727316 14.63042597 19.70852531 12.3206749 19.6929512 C-10.32919989 19.55455283 -29.92617832 22.11327742 -45.54980469 40.5480957 Z " fill="#161513" transform="translate(709.80615234375,211.822998046875)"/>
<path d="M0 0 C4.74698954 0.31420145 7.55685178 2.75372526 11.0625 5.6875 C23.34752356 15.52113807 36.11322379 20.71942561 52 19 C64.40170022 15.95062475 74.44607595 9.5532714 83.9296875 1.1875 C86 0 86 0 88.7578125 0.3125 C89.49773437 0.539375 90.23765625 0.76625 91 1 C91.47465872 11.3659339 86.14464232 19.9066527 79.515625 27.5234375 C70.60648832 36.29423355 58.50538668 41.45997545 46.0625 42.25 C32.43543002 42.00100038 20.5973774 37.51771673 10.625 28.1875 C4.40466486 21.51359876 -0.73222417 13.44477531 -1.1875 4.1875 C-1 1 -1 1 0 0 Z " fill="#FAFAFA" transform="translate(459,532)"/>
<path d="M0 0 C3.84080783 2.98422479 5.62888802 6.05853906 7.171875 10.6875 C7.69035453 17.50749993 7.90389162 23.73959851 4.171875 29.6875 C-1.56856846 35.63513569 -6.09973302 38.96529823 -14.515625 39.1875 C-21.53663601 39.07802478 -25.79289623 37.57306168 -30.828125 32.6875 C-35.98783331 26.90614009 -37.21279128 21.84480714 -37.1015625 14.28125 C-36.4923699 8.50262309 -33.80777066 4.31925182 -29.640625 0.375 C-19.87516517 -7.2458066 -10.06857198 -6.50392227 0 0 Z " fill="#FBFBFB" transform="translate(430.828125,475.3125)"/>
<path d="M0 0 C5.56290835 3.23587488 10.19515458 6.97422263 12.17578125 13.265625 C13.01094957 20.65686459 12.80366058 27.20337372 8.17578125 33.265625 C3.81723697 37.89270518 -0.42635963 40.80788232 -6.83984375 41.671875 C-14.90797981 41.90573402 -19.81339967 40.75602684 -25.82421875 35.265625 C-31.27252506 29.53791837 -32.35117116 24.06092573 -32.19921875 16.33984375 C-31.51760111 10.75199913 -29.22673784 6.49849013 -25.109375 2.671875 C-16.97751241 -3.44926446 -9.17078727 -4.49827908 0 0 Z " fill="#FAFAFA" transform="translate(600.82421875,472.734375)"/>
<path d="M0 0 C0.763125 0.226875 1.52625 0.45375 2.3125 0.6875 C3.53653492 4.13705296 3.25156008 6.21059869 1.96875 9.50390625 C-8.79523462 40.59951383 -6.93742864 85.41395553 2.83081055 116.35205078 C3.34783392 118.85881489 3.13570119 120.29153852 2.3125 122.6875 C-0.1625 123.1825 -0.1625 123.1825 -2.6875 123.6875 C-14.33768591 111.00477253 -16.04275047 88.29468494 -16.6875 71.6875 C-16.74035156 70.48867188 -16.79320312 69.28984375 -16.84765625 68.0546875 C-17.31584921 47.25063515 -16.86342586 18.43539552 -4.3125 0.75 C-2.6875 -0.3125 -2.6875 -0.3125 0 0 Z " fill="#F5F5F5" transform="translate(253.6875,463.3125)"/>
<path d="M0 0 C2.6875 0.375 2.6875 0.375 4.6953125 2.4453125 C6.91175026 5.7047798 8.14735626 8.88309838 9.25 12.625 C9.45979492 13.31811279 9.66958984 14.01122559 9.88574219 14.7253418 C18.22855821 43.38207925 22.99416155 89.20805316 8.609375 116.4140625 C7.5 118.125 7.5 118.125 5.6875 120.375 C0.8125 115.625 0.8125 115.625 -0.3125 113.375 C-0.18454281 106.86886905 0.63044717 100.4138469 1.6875 94 C4.88602301 74.09277473 3.99606579 54.2960159 1.6875 34.375 C1.60741699 33.68180664 1.52733398 32.98861328 1.44482422 32.27441406 C0.57591167 25.00949339 -0.84016107 18.08300262 -2.7109375 11.015625 C-3.47883083 7.64487244 -3.61789031 4.81064093 -3.3125 1.375 C-2.3125 0.375 -2.3125 0.375 0 0 Z " fill="#F6F6F7" transform="translate(752.3125,462.625)"/>
<path d="M0 0 C2.9524953 5.16686677 3.37483615 10.7841822 2.5 16.625 C-1.08562943 25.17850531 -8.36370996 29.83712384 -16.5 33.625 C-19.30117367 34.23065917 -20.82680923 34.04258633 -23.26953125 32.52734375 C-28.16482851 28.66263539 -30.73893684 24.78754955 -31.8828125 18.53125 C-32.43076935 11.76517411 -29.7365392 6.76808678 -25.5 1.625 C-18.26278102 -4.65012837 -7.52483011 -7.14858861 0 0 Z " fill="#FAFAFA" transform="translate(514.5,210.375)"/>
<path d="M0 0 C5.07621619 1.63471369 8.49377121 3.18804072 11 8 C11.83179455 12.67251545 12.13537975 17.02000849 9.71875 21.234375 C7.12255178 24.31417876 4.98728434 26.7819706 0.828125 27.23828125 C-3.51240532 27.36323591 -6.42986844 27.25915071 -10.4375 25.4375 C-14.49992345 21.57324355 -15.803633 17.89821436 -16.375 12.375 C-15.80138244 7.21244197 -14.1913854 5.00184681 -10.25 1.6875 C-6.38313284 -0.32029641 -4.30789873 -0.52904019 0 0 Z " fill="#181816" transform="translate(803,275)"/>
<path d="M0 0 C3.98680167 2.06723049 6.61569183 4.21516697 9 8 C9.89486349 12.88547094 9.49271949 16.95770878 7.375 21.4375 C3.58909942 25.52228747 0.55343557 26.77808063 -4.9375 27.5625 C-9.2178449 27.39818734 -11.58679251 25.56842895 -14.58984375 22.640625 C-17.36652196 19.41014066 -17.89725002 16.7926427 -18.4375 12.625 C-17.88746222 8.06754409 -16.23666645 5.22814891 -13 2 C-8.82139461 -0.58798399 -4.78586586 -0.68132118 0 0 Z " fill="#181715" transform="translate(761,275)"/>
<path d="M0 0 C4.63809404 1.69468821 7.59163197 3.64641164 10 8 C10.81979599 13.00242862 10.54823991 16.84026173 8.375 21.4375 C4.58909942 25.52228747 1.55343557 26.77808063 -3.9375 27.5625 C-8.21796857 27.39818259 -10.5919502 25.5721151 -13.5859375 22.6328125 C-16.71777872 19.01648755 -17.1766758 16.1677858 -16.9375 11.5 C-16.30905296 6.94943766 -14.65029757 4.86809095 -11 2 C-7.27328121 -0.4844792 -4.31556709 -0.52409164 0 0 Z " fill="#161513" transform="translate(716,275)"/>
<path d="M0 0 C0 3 0 3 -1.75 5.04296875 C-2.4925 5.75066406 -3.235 6.45835937 -4 7.1875 C-4.7425 7.90292969 -5.485 8.61835938 -6.25 9.35546875 C-6.8275 9.89816406 -7.405 10.44085938 -8 11 C-8.99 10.67 -9.98 10.34 -11 10 C-9.73232923 8.70522938 -8.46073776 7.41429661 -7.1875 6.125 C-6.47980469 5.40570313 -5.77210938 4.68640625 -5.04296875 3.9453125 C-3 2 -3 2 0 0 Z " fill="#272626" transform="translate(776,345)"/>
<path d="M0 0 C0.33 0.99 0.66 1.98 1 3 C-1.31 4.98 -3.62 6.96 -6 9 C-6 6 -6 6 -4.6875 4.39453125 C-4.130625 3.87246094 -3.57375 3.35039063 -3 2.8125 C-2.443125 2.28269531 -1.88625 1.75289062 -1.3125 1.20703125 C-0.6628125 0.60955078 -0.6628125 0.60955078 0 0 Z " fill="#1D1D1D" transform="translate(341,736)"/>
<path d="M0 0 C0.66 0.33 1.32 0.66 2 1 C0.02 2.98 -1.96 4.96 -4 7 C-4.99 6.67 -5.98 6.34 -7 6 C-4.69 4.02 -2.38 2.04 0 0 Z " fill="#1A1A19" transform="translate(344,368)"/>
</svg>
